<?xml version="1.0" standalone="no"?>
<!DOCTYPE svg PUBLIC "-//W3C//DTD SVG 20010904//EN"
 "http://www.w3.org/TR/2001/REC-SVG-20010904/DTD/svg10.dtd">
<svg version="1.0" xmlns="http://www.w3.org/2000/svg"
 width="213.000000pt" height="213.000000pt" viewBox="0 0 213.000000 213.000000"
 preserveAspectRatio="xMidYMid meet">
<metadata>
Created by potrace 1.14, written by Peter Selinger 2001-2017
</metadata>
<g transform="translate(0.000000,213.000000) scale(0.100000,-0.100000)"
fill="#000000" stroke="none">
<path d="M1243 1110 c-3 -11 -12 -20 -20 -20 -16 0 -73 -56 -73 -71 0 -5 -3
-9 -7 -9 -5 0 -17 -14 -28 -30 -11 -16 -26 -30 -32 -30 -7 0 -13 -4 -13 -9 0
-12 -58 -71 -70 -71 -6 0 -10 -5 -10 -11 0 -17 -27 -39 -49 -39 -13 0 -21 6
-21 16 0 9 -38 54 -85 99 -47 46 -85 87 -85 91 0 10 -33 33 -47 34 -10 0 -13
-63 -13 -285 l0 -285 315 0 315 0 0 320 0 320 -36 0 c-27 0 -37 -5 -41 -20z"/>
</g>
</svg>
